<svg id="Capa_1" enable-background="new 0 0 512 512" height="512" viewBox="0 0 512 512" width="512" xmlns="http://www.w3.org/2000/svg"><g><g><path d="m370.17 8.505c5.933-.18 9.616 3.945 8.904 9.838-1.963 16.243-10.548 47.352-32.601 67.504-30.969 28.3-77.717 24.275-77.717 24.275s.463-49.909 31.432-78.21c15.874-14.505 36.681-20.519 53.194-22.934 6.428-.94 12.205-.334 16.788-.473z" fill="#bbf49b"/><path d="m370.17 7.504c-4.149.125-9.281.464-14.985 1.224 3.29 1.843 5.374 5.545 4.882 9.615-1.963 16.243-8.547 47.352-30.6 67.504-18.395 16.81-43.416 22.215-60.701 23.833-.008.285-.009.442-.009.442s49.749 4.025 80.718-24.275c22.053-20.152 28.637-51.261 30.6-67.504.712-5.893-3.972-11.018-9.905-10.839z" fill="#9be69d"/><path d="m274.701 121.549s-1.252-5.787-2.939-12.682c.01.002.021.003.031.005-.43-1.737-.872-3.447-1.322-5.143-1.222-4.726-2.547-9.442-3.742-12.804-.006-.016-.015-.03-.021-.047-8.935-27.531-21.625-46.7-41.813-46.286-8.732-.603-16.298 5.988-16.901 14.719v.001c-.602 8.732 5.988 16.298 14.72 16.9h.001c10.121.691 13.655 14.114 15.995 27.196.007.036.012.073.019.109.328 1.838.633 3.668.929 5.455.028-.006.057-.01.086-.015l2.363 12.591h32.594z" fill="#b67f5f"/><path d="m364.349 315.969c-19.54-34.707-29.548-73.966-29.548-113.795v-14.054c0-44.626-34.176-78.801-78.801-78.801 0 0-10.146-1.523-15.01-.609-37.454 7.036-65.792 39.914-65.792 79.41v14.051c0 40.188-10.64 79.537-30.062 114.72-10.275 18.612-15.998 40.087-15.669 62.926.917 63.687 49.57 116.412 111.562 123.798 4.329.516 8.723-1.19 13.17-1.129 70.715.983 126.346-54.044 126.346-124.533.001-22.52-5.883-43.665-16.196-61.984z" fill="#6fd7a3"/><path d="m366.35 315.969c-19.54-34.707-29.548-73.966-29.548-113.795v-14.054c0-44.626-36.176-80.802-80.802-80.802-5.13 0-10.141.499-15.006 1.413 37.452 7.037 65.796 39.893 65.796 79.388v14.054c0 39.829 10.008 79.088 29.548 113.795 10.313 18.319 16.197 39.464 16.197 61.984 0 64.8-48.706 118.218-111.505 125.656 4.329.516 8.722.816 13.17.878 70.715.983 128.347-56.045 128.347-126.534-.001-22.519-5.884-43.664-16.197-61.983z" fill="#3ec3a4"/><path d="m331.814 360.994c0 42.424-33.391 75.815-75.815 75.815-3.392 0-6.732.781-10.007.355-37.696-4.904-66.808-37.137-66.808-76.169s29.112-71.265 66.808-76.169c3.275-.426 6.615.354 10.007.354 42.424 0 75.815 33.391 75.815 75.814z" fill="#ffaa5f"/><path d="m256 284.18c-3.393 0-6.727.243-10.004.67 37.694 4.906 66.811 37.114 66.811 76.145s-29.117 71.239-66.811 76.145c3.277.427 6.611.67 10.004.67 42.424 0 76.815-34.391 76.815-76.815s-34.392-76.815-76.815-76.815z" fill="#ff8c5a"/></g><g><path d="m372.885 312.29c-18.7-33.215-28.583-71.293-28.583-110.116v-14.054c0-30.453-15.496-57.353-39.016-73.233 25.644-5.221 41.317-16.256 49.247-23.503 8.204-7.497 15.117-16.985 20.547-28.2 1.805-3.728.246-8.214-3.482-10.019-3.728-1.806-8.214-.247-10.018 3.482-4.597 9.495-10.372 17.456-17.165 23.663-7.083 6.473-27.6 21.513-65.769 22.457-.238-.063-.475-.13-.714-.191-.259-.991-.525-1.989-.798-2.993 4.468-35.736 19.481-54.246 28.114-62.135 20.163-18.425 49.473-21.974 65.149-22.449.832-.037 1.374.37 1.681.705s.651.909.551 1.737c-.384 3.175-.887 6.396-1.496 9.573-.78 4.068 1.886 7.998 5.954 8.778 4.064.78 7.998-1.886 8.778-5.954.674-3.515 1.231-7.08 1.656-10.598.602-4.981-.991-9.959-4.37-13.656-3.379-3.698-8.199-5.728-13.208-5.579-17.753.538-51.079 4.679-74.813 26.369-14.397 13.156-22.682 30.368-27.455 45.885-8.664-19.289-21.644-35.175-42.114-35.175-.165 0-.331.001-.498.003-6.091-.33-11.977 1.688-16.592 5.708-4.703 4.096-7.529 9.778-7.958 16s1.591 12.238 5.687 16.941 9.778 7.529 16.005 7.958c4.484.306 7.184 10.793 8.871 19.71-36.591 10.784-63.378 44.677-63.378 84.714v14.051c0 4.142 3.358 7.5 7.5 7.5s7.5-3.358 7.5-7.5v-14.049c0-40.419 32.883-73.302 73.302-73.302s73.302 32.883 73.302 73.302v14.054c0 41.396 10.551 82.019 30.512 117.475 9.965 17.7 15.232 37.861 15.232 58.305 0 32.112-12.593 62.215-35.459 84.766-22.861 22.545-53.17 34.735-85.284 34.269-30.99-.431-60.236-12.841-82.351-34.945s-34.541-51.344-34.987-82.333c-.298-20.721 4.798-41.19 14.736-59.194 14.708-26.644 24.317-55.069 28.559-84.485.591-4.1-2.253-7.902-6.353-8.494-4.093-.589-7.902 2.253-8.494 6.353-3.982 27.617-13.014 54.324-26.844 79.377-11.197 20.283-16.938 43.333-16.602 66.659.502 34.915 14.488 67.847 39.381 92.727 24.892 24.879 57.83 38.849 92.746 39.335.643.009 1.282.013 1.923.013 35.463-.001 68.817-13.665 94.102-38.601 25.747-25.392 39.926-59.288 39.926-95.446.001-23.018-5.933-45.723-17.16-65.665zm-127.1-211.877c-2.741-14.604-7.578-30.659-22.555-31.682-2.225-.153-4.256-1.163-5.72-2.845s-2.187-3.833-2.033-6.058c.153-2.225 1.163-4.256 2.845-5.72 1.682-1.465 3.842-2.188 6.057-2.033.223.015.447.02.67.016 5.743-.122 22.497-.458 36.6 47.913-1.868-.118-3.75-.186-5.648-.186-3.456.001-6.864.207-10.216.595z"/><path d="m326.607 392.218c3.932 1.298 8.174-.837 9.473-4.771 2.81-8.512 4.235-17.412 4.235-26.453 0-46.491-37.824-84.315-84.315-84.315s-84.315 37.824-84.315 84.315 37.824 84.315 84.315 84.315c23.386 0 45.127-9.353 61.216-26.336 2.849-3.007 2.72-7.754-.287-10.603-3.008-2.85-7.754-2.721-10.603.286-13.228 13.962-31.101 21.652-50.327 21.652-38.22 0-69.315-31.095-69.315-69.315s31.096-69.313 69.316-69.313 69.315 31.095 69.315 69.315c0 7.44-1.17 14.758-3.479 21.75-1.299 3.933.837 8.174 4.771 9.473z"/></g></g></svg>