<svg id="Capa_1" enable-background="new 0 0 512.001 512.001" height="512" viewBox="0 0 512.001 512.001" width="512" xmlns="http://www.w3.org/2000/svg"><g><g><path d="m106.438 26.901c-.906-11.752 9.569-21.207 21.168-19.107 19.898 3.604 49.401 12.549 69.414 34.721 32.719 36.249 27.679 94.126 27.679 94.126s-58.089-.895-90.808-37.144c-20.013-22.171-25.9-52.434-27.453-72.596z" fill="#bbf49b"/><path d="m423.152 91.564c9.849 5.739 10.958 18.074 3.365 26.577-16.37 18.33-46.21 45.458-85.578 51.695-11.034 1.748-21.964 2.657-32.448 1.343-46.056-5.775-83.514-35.088-83.514-35.088s40.033-59.462 99.543-68.889c.961-.152 1.921-.29 2.879-.415 38.336-4.985 75.038 12.706 95.753 24.777z" fill="#bbf49b"/><path d="m423.152 90.56c-20.807-12.125-57.745-28.891-96.265-23.69 26.9 3.383 50.863 14.791 66.136 23.69 9.849 5.739 11.962 19.079 4.369 27.581-16.37 18.33-47.214 46.463-86.582 52.699-.773.123-1.546.231-2.319.335 10.484 1.315 21.413 1.413 32.447-.335 39.368-6.236 70.212-34.369 86.582-52.699 7.594-8.502 5.481-21.842-4.368-27.581z" fill="#9be69d"/><path d="m235.089 419.874c0 46.738-36.884 83.622-83.622 83.622-5.143 0-10.179.546-15.069-.333-39.549-7.108-69.558-41.694-69.558-83.289s30.009-76.181 69.558-83.289c4.89-.879 9.926-.333 15.069-.333 46.737 0 83.622 36.884 83.622 83.622z" fill="#ed5469"/><path d="m151.466 335.248c-5.145 0-10.173.484-15.064 1.364 39.547 7.11 69.562 41.669 69.562 83.263s-30.016 76.153-69.562 83.263c4.891.879 9.92 1.364 15.064 1.364 46.738 0 84.627-37.889 84.627-84.627s-37.889-84.627-84.627-84.627z" fill="#e63850"/><path d="m444.158 352.711c-.048 46.428-36.884 83.622-83.622 83.622-5.143 0-10.179.546-15.069-.333-39.549-7.108-69.558-41.694-69.558-83.289s30.009-76.181 69.558-83.289c4.89-.879 9.926-.333 15.069-.333 44.059 0 83.668 39.135 83.622 83.622z" fill="#ed5469"/><path d="m360.535 268.084c-5.145 0-10.173.484-15.064 1.364 39.547 7.11 69.562 41.669 69.562 83.263s-30.016 76.153-69.562 83.263c4.891.879 9.92 1.364 15.064 1.364 46.738 0 84.626-37.889 84.626-84.627.001-46.738-37.888-84.627-84.626-84.627z" fill="#e63850"/></g><path d="m450.506 332.928c-3.968-17.977-13.074-34.177-26.335-46.85-2.994-2.861-7.741-2.754-10.604.241-2.861 2.995-2.754 7.742.241 10.604 23.147 22.12 30.223 55.547 18.028 85.159-12.251 29.747-41.077 47.759-71.415 47.757-9.767 0-19.693-1.868-29.27-5.811-19.049-7.845-33.903-22.638-41.826-41.655-7.922-19.017-7.965-39.981-.12-59.03s22.638-33.903 41.655-41.826c19.017-7.922 39.981-7.965 59.03-.12 3.831 1.577 8.214-.249 9.791-4.079s-.249-8.213-4.079-9.791c-22.753-9.37-47.794-9.319-70.51.144-9.163 3.817-17.487 9.002-24.795 15.3-35.21-33.485-55.31-98.46-63.359-129.879 18.67 11.129 51.031 26.582 86.775 26.582 6.046 0 12.195-.443 18.384-1.423 42.348-6.709 75.193-37.409 91.002-55.111 5.126-5.739 7.374-13.392 6.17-20.996-1.205-7.604-5.708-14.187-12.357-18.061-20.507-11.949-61.232-30.993-103.58-24.287-42.011 6.655-74.308 36.211-91.309 55.381-1.542-21.272-7.719-53.608-29.451-77.685-2.775-3.074-7.517-3.318-10.593-.542-3.075 2.775-3.317 7.518-.542 10.593 23.478 26.01 26.036 64.972 26.006 81.079-16.032-1.616-54.525-8.139-78.001-34.148-18.336-20.314-24.01-48.271-25.542-68.147-.252-3.267 1.003-6.403 3.442-8.604 2.44-2.202 5.688-3.127 8.912-2.546 11.607 2.102 28.722 6.527 44.336 15.666 3.574 2.092 8.168.892 10.261-2.684 2.092-3.575.891-8.169-2.684-10.261-17.507-10.248-36.44-15.163-49.239-17.48-7.834-1.418-15.719.831-21.635 6.17-5.917 5.34-8.959 12.956-8.348 20.892 1.711 22.203 8.194 53.592 29.363 77.045 24.85 27.531 62.523 35.934 82.604 38.497-57.347 76.207-66.686 150.048-67.447 185.082-16.02 1.373-31.294 6.861-44.573 16.101-15.112 10.514-26.624 25.104-33.293 42.19-1.506 3.858.401 8.207 4.26 9.713 3.86 1.506 8.208-.402 9.713-4.26 11.64-29.826 39.854-49.099 71.878-49.099 42.528 0 77.126 34.599 77.126 77.126 0 42.528-34.599 77.126-77.126 77.126s-77.127-34.599-77.127-77.126c0-4.142-3.358-7.5-7.5-7.5s-7.5 3.358-7.5 7.5c0 50.799 41.328 92.126 92.127 92.126s92.126-41.328 92.126-92.126c0-48.438-37.576-88.264-85.109-91.861.769-33.132 9.657-102.277 63.112-174.225 7.758 31.523 28.743 102.179 68.19 139.872-5.926 7.116-10.809 15.162-14.436 23.969-9.371 22.754-9.319 47.795.143 70.511 9.463 22.715 27.207 40.386 49.961 49.757 11.442 4.712 23.293 6.942 34.962 6.942 36.235-.002 70.672-21.517 85.305-57.046 7.204-17.488 8.864-36.461 4.802-54.866zm-124.826-258.319c37.756-5.982 74.899 11.487 93.682 22.431 2.74 1.597 4.597 4.312 5.094 7.448s-.43 6.292-2.542 8.658c-14.48 16.213-44.409 44.306-82.162 50.287-44.723 7.086-88.573-18.579-104.182-29.022 11.62-14.761 45.388-52.717 90.11-59.802z"/></g></svg>