<svg id="Capa_1" enable-background="new 0 0 511.999 511.999" height="512" viewBox="0 0 511.999 511.999" width="512" xmlns="http://www.w3.org/2000/svg"><g><g><path d="m202.896 47.056c9.578.661 18.293 18.217 22.747 45.818 1.049 6.5 2.015 20.659 2.823 36.167 1.173 12.983-2.287 52.872-2.287 52.872l43.33-.618s.842-21.745-1.606-41.476c-.553-21.212-1.51-43.011-3.163-53.254-10.106-62.639-37.727-77.544-59.12-79.02-10.91-.753-20.365 7.482-21.117 18.392-.752 10.913 7.483 20.367 18.393 21.119z" fill="#b67f5f"/><path d="m187.799 437.461c0 33.621 24.75 61.462 57.024 66.295 3.267.489 6.611-.258 10.014-.258 37.024 0 66.037-29.013 66.037-66.037s-29.013-66.037-66.037-66.037c-3.403 0-6.747-.748-10.014-.259-32.273 4.834-57.024 32.675-57.024 66.296z" fill="#9678cd"/><path d="m254.838 370.423c-3.403 0-6.746.258-10.013.748 32.274 4.834 57.025 32.67 57.025 66.291s-24.751 61.457-57.025 66.291c3.267.489 6.61.747 10.013.747 37.024 0 67.038-30.014 67.038-67.038 0-37.025-30.014-67.039-67.038-67.039z" fill="#7d64b6"/><ellipse cx="198.238" cy="355.812" fill="#c8afeb" rx="61.908" ry="61.908" transform="matrix(.16 -.987 .987 .16 -184.733 494.496)"/><path d="m277.455 74.328c6.899-18.723 20.328-32.139 30.583-40.206 4.79-3.768 11.902-.884 12.569 5.175.248 2.258.7 4.718 1.445 7.329 18.857-21.739 45.208-29.405 64.258-31.988 6.171-.837 11.576-.139 15.711-.216 4.701-.087 6.392 2.971 5.877 7.645-2.052 18.635-9.739 63.753-37.315 91.347-32.635 32.656-86.569 44.323-107.837 22.478-.055-.056 2.624-28.766 14.709-61.564z" fill="#bbf49b"/><path d="m402.02 13.42c-4.134.076-9.542.384-15.711 1.22 2.406 1.534 3.904 4.342 3.565 7.426-2.052 18.635-9.739 63.753-37.315 91.347-18.371 18.383-44.125 30.113-66.922 32.96 26.162 3.766 62.883-8.879 86.948-32.96 27.576-27.594 35.262-72.712 37.315-91.347.514-4.673-3.178-8.732-7.88-8.646z" fill="#9be69d"/><path d="m372.344 355.812c0 34.191-26.716 60.907-60.907 60.907-3.41 0-6.755.726-10.015.195-29.429-4.787-51.893-30.321-51.893-61.102s22.465-56.316 51.893-61.102c3.26-.53 6.605.195 10.015.195 34.191 0 60.907 26.716 60.907 60.907z" fill="#aa91dc"/><path d="m311.437 293.903c-3.41 0-6.752.287-10.013.818 29.428 4.787 51.895 30.31 51.895 61.09s-22.468 56.303-51.895 61.09c3.261.531 6.603.818 10.013.818 34.191 0 61.908-27.717 61.908-61.908s-27.717-61.908-61.908-61.908z" fill="#9678cd"/><path d="m299.637 271.917c0 31.517 23.057 57.65 53.224 62.449 3.262.519 6.607-.213 10.014-.213 34.925 0 62.237-27.311 62.237-62.237 0-34.925-27.311-62.236-62.237-62.236-3.408 0-6.753-.732-10.014-.213-30.167 4.801-53.224 30.933-53.224 62.45z" fill="#c8afeb"/><path d="m362.875 208.679c-3.408 0-6.751.278-10.013.797 30.166 4.8 53.225 30.924 53.225 62.441s-23.059 57.64-53.225 62.441c3.262.519 6.605.797 10.013.797 34.925 0 63.238-28.312 63.238-63.237 0-34.926-28.312-63.239-63.238-63.239z" fill="#aa91dc"/><ellipse cx="149.124" cy="271.917" fill="#aa91dc" rx="63.238" ry="63.238" transform="matrix(.973 -.23 .23 .973 -58.485 41.536)"/><circle cx="83.93" cy="184.186" fill="#9678cd" r="62.132"/><path d="m365.937 184.186c0 30.905 22.564 56.54 52.117 61.329 3.26.528 6.605-.198 10.015-.198 34.314 0 61.13-26.816 61.13-61.13s-26.816-61.131-61.13-61.131c-3.409 0-6.755-.727-10.015-.198-29.552 4.788-52.117 30.423-52.117 61.328z" fill="#9678cd"/><path d="m428.069 122.055c-3.41 0-6.752.285-10.013.814 29.552 4.79 52.119 30.413 52.119 61.318 0 30.904-22.567 56.527-52.119 61.317 3.261.529 6.603.814 10.013.814 34.314 0 62.132-27.817 62.132-62.131 0-34.315-27.818-62.132-62.132-62.132z" fill="#7d64b6"/><ellipse cx="256" cy="275.718" fill="#9678cd" rx="67.038" ry="67.038" transform="matrix(.973 -.23 .23 .973 -56.499 66.192)"/><ellipse cx="313.356" cy="189.093" fill="#aa91dc" rx="67.038" ry="67.038" transform="matrix(.23 -.973 .973 .23 57.327 450.622)"/><ellipse cx="198.643" cy="189.093" fill="#c8afeb" rx="67.038" ry="67.038" transform="matrix(.707 -.707 .707 .707 -75.528 195.846)"/></g><path d="m497.701 184.186c0-38.395-31.236-69.632-69.632-69.632-22.622 0-43.22 10.656-56.188 28.461-3.085-3.91-6.549-7.506-10.342-10.728 5.953-4.116 11.434-8.651 16.352-13.572 5.119-5.122 9.87-11.081 14.121-17.713 2.236-3.487 1.222-8.126-2.266-10.362-3.485-2.235-8.127-1.221-10.361 2.266-3.673 5.728-7.745 10.844-12.103 15.206-5.594 5.597-12.04 10.647-19.193 15.058-10.379-5.491-22.195-8.615-34.732-8.615-13.86 0-27.037 3.739-38.402 10.568-.175-4.842-.367-9.297-.573-13.394 2.661-12.096 6.057-23.804 10.111-34.808 6.318-17.148 18.813-29.534 28.183-36.904.105-.082.158-.09.239-.082.123.016.208.08.237.181.314 2.861.882 5.744 1.688 8.568.756 2.647 2.9 4.668 5.588 5.264 2.688.597 5.485-.329 7.29-2.408 23.272-26.828 59.811-30.352 74.441-30.622.042-.002.129-.002.213.089.089.098.079.189.073.237-.951 8.639-3.482 25.801-9.738 43.684-1.368 3.91.692 8.188 4.603 9.556 3.91 1.371 8.188-.693 9.556-4.603 6.409-18.319 9.242-35.667 10.49-46.995.481-4.374-.941-8.745-3.905-11.991-2.895-3.173-6.995-4.978-11.285-4.978-.094 0-.188.001-.283.003-14.79.272-49.337 3.544-75.95 26.314-1.638-2.683-4.098-4.842-7.097-6.101-5.139-2.157-11.053-1.355-15.434 2.092-10.891 8.566-25.453 23.069-32.983 43.508-.188.509-.366 1.028-.551 1.54-12.474-57.363-41.139-71.65-63.731-73.209-15.029-1.026-28.079 10.341-29.116 25.359-1.035 15.019 10.342 28.08 25.359 29.115 2.561.176 11.073 9.873 15.858 39.53.485 3.007 1.205 9.544 2.079 23.709-6.863-2.09-14.137-3.224-21.674-3.224-23.716 0-44.864 11.146-58.525 28.461-12.968-17.805-33.566-28.461-56.188-28.461-38.396 0-69.632 31.237-69.632 69.632 0 37.332 29.534 67.888 66.463 69.551-1.573 5.898-2.375 11.977-2.375 18.18 0 32.599 22.171 60.102 52.222 68.262-1.175 5.101-1.777 10.33-1.777 15.632 0 8.372 1.476 16.56 4.389 24.338 1.128 3.013 3.986 4.872 7.024 4.872.874 0 1.763-.154 2.629-.478 3.879-1.453 5.847-5.774 4.394-9.654-2.279-6.089-3.435-12.508-3.435-19.078 0-4.506.557-8.941 1.635-13.251 1.211.062 2.431.094 3.657.094 18.571 0 36.004-7.136 49.12-19.848 11.147 13.639 26.837 22.962 44.138 26.185-.225 2.272-.353 4.55-.353 6.82 0 8.747 1.643 17.113 4.609 24.828-9.277 18.065-27.944 29.58-48.399 29.58-2.102 0-4.181-.127-6.235-.358-.226-.034-.452-.058-.677-.071-9.916-1.24-19.177-5.156-27.1-11.509-3.23-2.591-7.951-2.072-10.543 1.159-2.592 3.232-2.073 7.952 1.158 10.544 7.885 6.323 17.083 10.806 26.83 13.207-.911 4.686-1.373 9.46-1.373 14.27 0 41.101 33.438 74.538 74.538 74.538s74.539-33.438 74.539-74.538c0-4.805-.46-9.574-1.369-14.255 30.295-7.451 52.838-34.833 52.838-67.393 0-5.105-.556-10.149-1.651-15.078 31.16-7.389 54.418-35.429 54.418-68.816 0-6.203-.802-12.283-2.375-18.18 36.93-1.664 66.464-32.219 66.464-69.552zm-124.807 4.907c0 30.816-23.533 56.236-53.571 59.239-.025.002-.051.003-.077.006-1.939.191-3.903.294-5.891.294-19.57 0-37.444-9.329-48.612-25.154 5.378-10.296 8.437-21.986 8.437-34.384s-3.06-24.088-8.437-34.384c2.323-3.292 4.938-6.3 7.796-9.004.335-.264.647-.555.932-.871 10.769-9.757 24.824-15.28 39.884-15.28 32.83 0 59.539 26.708 59.539 59.538zm-139.847-97.413c-3.051-18.907-10.957-50.817-29.636-52.105-6.767-.466-11.893-6.352-11.426-13.119s6.36-11.899 13.119-11.426c26.792 1.849 44.854 26.999 52.231 72.732 1.273 7.894 2.299 24.772 2.979 48.914-1.512 1.539-2.962 3.152-4.348 4.833-5.662-6.809-12.519-12.583-20.235-17.03-.902-16.455-1.782-27.215-2.684-32.799zm-34.404 37.875c32.829 0 59.538 26.709 59.538 59.538 0 32.83-26.709 59.539-59.538 59.539-1.989 0-3.953-.102-5.892-.294-.023-.002-.047-.003-.07-.005-30.04-3.001-53.575-28.422-53.575-59.24-.001-32.83 26.708-59.538 59.537-59.538zm-169.345 54.631c0-30.124 24.508-54.632 54.632-54.632 19.839 0 37.693 10.449 47.423 27.501-4.642 9.711-7.248 20.575-7.248 32.037 0 9.208 1.689 18.025 4.756 26.173-8.852 12.831-22.445 21.103-37.73 23.088-.319.017-.635.051-.947.108-2.058.231-4.144.356-6.253.356-30.125.001-54.633-24.507-54.633-54.631zm119.825 143.469c-30.733 0-55.737-25.003-55.737-55.737 0-6.667 1.179-13.151 3.478-19.336 15.258-2.922 29.23-10.921 39.492-22.615 10.543 16.012 27.079 27.731 46.398 31.943-.857 4.543-1.293 9.162-1.293 13.809 0 11.98 2.872 23.724 8.346 34.279-10.527 11.278-25.1 17.657-40.684 17.657zm165.253 109.806c0 32.83-26.709 59.538-59.539 59.538-32.829 0-59.538-26.709-59.538-59.538 0-4.145.437-8.254 1.281-12.277.553.013 1.105.036 1.658.036 22.747 0 43.758-11.163 56.615-29.287 12.59 17.704 33.253 29.287 56.583 29.287.556 0 1.104-.029 1.657-.042.846 4.025 1.283 8.135 1.283 12.283zm51.469-81.649c0 30-24.407 54.408-54.408 54.408s-54.408-24.407-54.408-54.408c0-1.852.097-3.711.288-5.567 22.225-.383 42.654-10.426 56.455-27.423 13.114 12.703 30.541 19.833 49.104 19.833.451 0 .896-.026 1.345-.034 1.072 4.296 1.624 8.711 1.624 13.191zm2.775-28.452c-.009.001-.018.002-.026.003-1.88.193-3.788.292-5.719.292-15.584 0-30.155-6.378-40.684-17.658.718-1.382 1.392-2.785 2.018-4.2 1.674-3.788-.04-8.217-3.829-9.892-3.786-1.675-8.216.04-9.892 3.828-1.091 2.47-2.367 4.892-3.791 7.201-.001.002-.002.004-.003.005-10.947 17.731-29.898 28.316-50.696 28.316-1.436 0-2.941-.058-4.478-.172h-.001v-.001c-18.928-1.406-36.204-11.927-46.216-28.143-.001-.002-.002-.005-.003-.007-5.783-9.37-8.84-20.165-8.84-31.216 0-4.081.428-8.134 1.255-12.11.31.004.616.023.927.023 23.025 0 43.641-10.498 57.324-26.954 14.06 17.044 34.82 26.954 57.389 26.954.308 0 .611-.02.919-.023.508 2.441.879 4.908 1.076 7.389.312 3.928 3.595 6.907 7.469 6.907.198 0 .399-.008.602-.024 4.129-.328 7.21-3.94 6.883-8.07-.21-2.647-.567-5.286-1.061-7.9 19.319-4.212 35.856-15.931 46.399-31.943 10.262 11.695 24.235 19.694 39.493 22.616 2.298 6.183 3.477 12.667 3.477 19.336.001 28.795-21.947 52.558-49.992 55.443zm59.449-88.542c-2.112 0-4.199-.125-6.259-.357-.309-.056-.621-.09-.936-.106-15.288-1.984-28.882-10.257-37.735-23.089 3.066-8.148 4.756-16.966 4.756-26.173 0-11.462-2.606-22.325-7.248-32.037 9.73-17.052 27.584-27.501 47.423-27.501 30.124 0 54.632 24.508 54.632 54.632s-24.509 54.631-54.633 54.631z"/></g></svg>