<svg id="Capa_1" enable-background="new 0 0 512.028 512.028" height="512" viewBox="0 0 512.028 512.028" width="512" xmlns="http://www.w3.org/2000/svg"><g><g><path d="m498.221 129.739c6.408 6.036 5.54 16.437-1.781 21.326-14.123 9.432-35.525 21.666-61.725 19.478-1.284-.107-3.407.149-4.67-.025-39.109-5.381-67.544-41.545-67.544-41.545s27.773-25.247 62.226-29.261c4.922-.573 9.98.286 15.113.715 26.199 2.188 46.019 17.668 58.381 29.312z" fill="#bbf49b"/><path d="m500.221 129.739c-12.363-11.644-34.182-28.124-60.382-30.313-5.506-.46-10.921-.249-16.178.433 24.494 3.371 44.805 18.808 56.561 29.88 6.408 6.036 5.54 16.437-1.781 21.326-11.156 7.45-28.633 16.89-48.396 19.453 1.263.174 2.537.315 3.821.423 26.2 2.188 50.451-10.444 64.574-19.875 7.321-4.89 8.19-15.291 1.781-21.327z" fill="#9be69d"/><path d="m374.509 117.142-.004-.003c13.425-23.739 17.725-43.522 5.894-59.933-5.213-6.511-14.717-7.563-21.228-2.349l-.001.001c-6.51 5.214-7.561 14.718-2.348 21.228 5.566 6.941-.029 16.93-6.927 26.339l-25.368 32.916 28 18.333 16.145-26.832c2.061-3.249 3.975-6.426 5.739-9.538z" fill="#b67f5f"/><path d="m412.825 242.192c0-94.463-72.987-155.941-167.45-155.941-5.206 0-10.319-.755-15.335-.276-85.998 8.207-143.467 85.113-152.065 173.955-5.459 56.407-60.276 103.164-60.276 103.164-26.194 40.133 1.079 93.539 48.949 95.821 78.947 3.764 179.366 5.716 263.304-55.707 42.396-31.024 82.873-92.937 82.873-161.016z" fill="#ffd54f"/><path d="m245.375 85.251c-4.523 0-8.974.188-13.354.551 87.329 6.288 155.35 67.019 155.35 156.39 0 68.079-40.477 129.992-82.873 161.017-61.131 44.733-132.593 55.849-197.411 57.135 71.763 1.281 155.632-5.742 225.865-57.135 42.396-31.024 82.873-92.938 82.873-161.017 0-94.462-75.987-156.941-170.45-156.941z" fill="#ffca28"/></g><g><path d="m165.645 451.464c-35.354 2.617-69.453 1.351-98.64-.041-19.755-.941-36.922-12.017-45.921-29.626-8.851-17.319-7.956-37.336 2.351-53.753 7.457-6.582 56.639-51.936 62.005-107.392 5.841-60.361 35.053-113.837 78.141-143.049 3.429-2.325 4.324-6.988 2-10.417-2.325-3.429-6.989-4.325-10.417-1.999-46.741 31.688-78.388 89.266-84.654 154.02-5.095 52.65-57.156 97.734-57.678 98.18-.545.465-1.021 1.006-1.414 1.607-13.792 21.132-15.172 47.162-3.691 69.628 11.477 22.457 33.37 36.582 58.563 37.784 17.015.811 35.68 1.58 55.345 1.58 14.578 0 29.708-.422 45.116-1.563 4.131-.306 7.231-3.902 6.926-8.033-.305-4.13-3.894-7.244-8.032-6.926z"/><path d="m505.36 124.277c-5.904-5.561-12.132-10.556-18.512-14.845-3.438-2.312-8.097-1.399-10.409 2.04-2.311 3.438-1.398 8.098 2.039 10.409 5.702 3.834 11.286 8.314 16.597 13.316 1.893 1.783 2.021 3.905 1.928 5.012-.092 1.106-.57 3.178-2.733 4.622-11.747 7.844-35.137 20.693-59.781 18.636-13.591-1.135-27.507-6.676-41.379-16.449-4.896-6.699-10.357-13.028-16.359-18.937.256-.412.509-.826.763-1.24 12.713-8.806 36.425-22.056 61.7-19.941 3.847.321 7.782 1.01 11.695 2.046 4.004 1.061 8.109-1.326 9.17-5.33s-1.326-8.11-5.33-9.17c-4.761-1.261-9.568-2.1-14.288-2.495-18.71-1.564-36.354 3.76-50.482 10.412 6.452-16.895 7.664-34.061-3.498-49.544-.074-.103-.15-.203-.229-.302-3.774-4.712-9.157-7.674-15.157-8.337-6.001-.663-11.901 1.049-16.614 4.823-4.712 3.774-7.673 9.157-8.337 15.158s1.049 11.901 4.827 16.618c2.804 3.496-4.331 13.612-9.82 20.782-27.869-15.504-60.821-23.81-95.776-23.81-21.152 0-41.494 3.884-60.46 11.544-3.841 1.551-5.697 5.922-4.145 9.763 1.551 3.84 5.922 5.697 9.763 4.146 17.173-6.936 35.625-10.452 54.843-10.452 44.783 0 85.858 14.613 115.661 41.148 7.658 6.818 14.418 14.245 20.262 22.214.291.528.64 1.03 1.062 1.483 17.067 23.937 25.965 52.672 25.965 84.595 0 66.708-40.081 125.897-79.802 154.964-36.469 26.687-79.53 43.344-131.645 50.925-4.099.596-6.938 4.402-6.342 8.502.543 3.733 3.748 6.421 7.413 6.421.359 0 .723-.026 1.089-.079 54.598-7.942 99.851-25.495 138.344-53.663 42.779-31.304 85.944-95.104 85.944-167.069 0-24.972-5.24-48.651-15.208-69.867 8.366 3.351 16.76 5.39 25.124 6.089 2.27.189 4.518.28 6.752.28 25.054 0 47.609-11.374 62.608-21.389 5.403-3.608 8.811-9.384 9.351-15.848.539-6.465-1.864-12.727-6.594-17.181zm-142.684-52.88c-1.27-1.585-1.846-3.569-1.622-5.587.223-2.018 1.219-3.829 2.804-5.099 1.585-1.269 3.569-1.846 5.588-1.622 1.962.217 3.728 1.165 4.992 2.675 9.151 12.874 6.639 29.699-8.558 55.298-.206.259-.394.527-.561.807-3.645-2.955-7.425-5.756-11.327-8.402 8.909-11.745 18.115-26.311 8.684-38.07z"/></g></g></svg>